:SAMPLES-PER-SECOND 30
:FULLY-SPECIFIED
:DEGREES
1061
root  12.6989 39.9255 12.9702 167.583 55.0291 165.206
RightUpLeg  -0.776907 -41.5857 -22.8087
RightLeg  24.9617 -12.3188 -6.40569
RightFoot  -7.62339 -0.290679 7.33246
RightToes  0.000481921 0.542163 -0.142578
Spine  23.1611 3.09692 20.8048
Spine1  0.986476 11.1822 -20.1516
HEad  0.731654 -22.3954 -1.66001
LeftShoulder1  6.63643 -10.8257 -40.0548
LeftArm  -12.0243 -6.57286 -30.4676
LeftForeArm  -173.431 -49.0325 -169.482
LeftHand  -0.25398 0.0180481 5.50724
RightShoulder  5.88688 10.733 35.3882
RightArm  -35.6563 0.00393966 24.4157
RightForeArm  129.457 61.1176 158.353
RightHand  -0.542442 1.22622 -9.6217
LeftUpLeg  -12.405 3.36868 -3.56468
LeftLeg  11.1943 -7.02444 -2.42124
LeftFoot  6.00988 0.423463 -3.01589
LeftToes  1.06245e-005 4.65869e-005 -8.65517e-006
1062
root  12.8255 39.9752 13.0861 167.798 57.2434 166.269
RightUpLeg  -0.111064 -40.7719 -21.4779
RightLeg  23.6219 -11.4703 -5.65792
RightFoot  -7.707 -0.268003 6.78189
RightToes  0.000481921 0.542163 -0.142578
Spine  22.4222 3.39506 18.386
Spine1  1.69843 10.5694 -17.6746
HEad  1.20831 -20.905 -0.492856
LeftShoulder1  6.6639 -10.868 -40.1073
LeftArm  -10.424 -7.51024 -31.1322
LeftForeArm  -172.271 -49.3901 -169.426
LeftHand  -0.25398 0.0180481 5.50724
RightShoulder  6.34267 10.9347 37.8931
RightArm  -31.0942 -8.57319 28.3357
RightForeArm  139.051 60.789 159.427
RightHand  -0.494437 0.949212 -9.18702
LeftUpLeg  -11.4495 4.0732 -2.01416
LeftLeg  11.1904 -5.61875 -2.01388
LeftFoot  5.16831 0.426044 -3.15276
LeftToes  1.06245e-005 4.65869e-005 -8.65517e-006
1063
root  12.8574 39.8586 13.1789 167.858 59.187 167.438
RightUpLeg  -0.264607 -38.8927 -20.253
RightLeg  24.4825 -11.361 -5.82449
RightFoot  -8.3976 -0.231991 6.80712
RightToes  0.000481921 0.542163 -0.142578
Spine  21.8689 3.2013 15.964
Spine1  2.63016 9.42567 -14.7287
HEad  1.50592 -18.6971 0.353928
LeftShoulder1  6.5909 -10.6869 -40.1783
LeftArm  -9.35723 -8.56037 -31.7149
LeftForeArm  -171.408 -49.5322 -169.431
LeftHand  -0.25398 0.0180481 5.50724
RightShoulder  6.52578 10.9486 39.0631
RightArm  -27.6606 -15.5489 31.0392
RightForeArm  146.041 59.7916 160.795
RightHand  -0.365497 0.888331 -6.79703
LeftUpLeg  -11.334 4.76799 -0.87869
LeftLeg  13.3349 -4.55693 -1.32642
LeftFoot  3.15059 0.392539 -3.23809
LeftToes  1.06245e-005 4.65869e-005 -8.65517e-006
1064
root  12.7899 39.6185 13.2353 167.376 61.4673 168.329
RightUpLeg  -1.34739 -35.6714 -18.9826
RightLeg  27.1038 -11.8867 -6.76501
RightFoot  -9.33953 -0.1862 7.00973
RightToes  0.000481921 0.542163 -0.142578
Spine  21.6895 2.52384 13.8898
Spine1  3.55507 8.05571 -12.6461
HEad  2.13473 -15.6289 1.13276
LeftShoulder1  6.35306 -10.3236 -39.7016
LeftArm  -8.87543 -9.54274 -32.4084
LeftForeArm  -169.699 -49.0485 -169.721
LeftHand  -0.25398 0.0180481 5.50724
RightShoulder  6.53625 11.0476 38.8387
RightArm  -25.171 -20.3036 32.9265
RightForeArm  148.029 59.4179 161.238
RightHand  -0.182688 0.200648 -3.87395
LeftUpLeg  -11.5507 4.531 0.212832
LeftLeg  16.7894 -2.43993 -0.472612
LeftFoot  0.490173 0.355008 -3.45987
LeftToes  1.06245e-005 4.65869e-005 -8.65517e-006
1065
root  12.672 39.3675 13.2587 165.626 64.5886 168.152
RightUpLeg  -2.56939 -31.7694 -18.0314
RightLeg  29.8794 -12.1587 -7.68357
RightFoot  -10.1621 -0.140535 6.90614
RightToes  0.000481921 0.542163 -0.142578
Spine  21.9608 1.82906 11.7372
Spine1  4.07171 6.83427 -11.5191
HEad  3.71864 -12.343 2.30559
LeftShoulder1  6.11873 -10.0169 -39.0463
LeftArm  -8.5669 -10.4381 -33.0713
LeftForeArm  -166.999 -47.8871 -170.308
LeftHand  -0.25398 0.0180481 5.50724
RightShoulder  6.38721 11.0398 37.8747
RightArm  -22.7621 -22.1226 33.0655
RightForeArm  143.989 60.9788 159.699
RightHand  -0.172597 0.400458 -3.45291
LeftUpLeg  -11.2026 4.49067 1.20725
LeftLeg  20.0278 0.191942 0.39943
LeftFoot  -1.84137 0.335994 -3.91175
LeftToes  1.06245e-005 4.65869e-005 -8.65517e-006
